<svg width="50" height="49" viewBox="0 0 50 49" fill="none" xmlns="http://www.w3.org/2000/svg">
<path d="M16.7238 39.254C16.7238 39.4556 16.4919 39.6169 16.1996 39.6169C15.8669 39.6472 15.6351 39.4859 15.6351 39.254C15.6351 39.0524 15.8669 38.8911 16.1593 38.8911C16.4617 38.8609 16.7238 39.0222 16.7238 39.254ZM13.5887 38.8004C13.5181 39.002 13.7198 39.2339 14.0222 39.2943C14.2843 39.3952 14.5867 39.2943 14.6472 39.0927C14.7077 38.8911 14.5161 38.6593 14.2137 38.5685C13.9516 38.498 13.6593 38.5988 13.5887 38.8004ZM18.0444 38.629C17.752 38.6996 17.5504 38.8911 17.5806 39.123C17.6109 39.3246 17.873 39.4556 18.1754 39.3851C18.4677 39.3145 18.6694 39.123 18.6391 38.9214C18.6089 38.7298 18.3367 38.5988 18.0444 38.629ZM24.6774 0C10.6956 0 0 10.6149 0 24.5968C0 35.7762 7.03629 45.3427 17.0867 48.7097C18.377 48.9415 18.8306 48.1452 18.8306 47.4899C18.8306 46.8649 18.8004 43.4173 18.8004 41.3004C18.8004 41.3004 11.744 42.8125 10.2621 38.2964C10.2621 38.2964 9.1129 35.3629 7.45968 34.6068C7.45968 34.6068 5.15121 33.0242 7.62097 33.0544C7.62097 33.0544 10.131 33.256 11.5121 35.6552C13.7198 39.5464 17.4194 38.4274 18.8609 37.7621C19.0927 36.1492 19.748 35.0302 20.4738 34.3649C14.8387 33.7399 9.15323 32.9234 9.15323 23.2258C9.15323 20.4536 9.91936 19.0625 11.5323 17.2883C11.2702 16.6331 10.4133 13.9315 11.7944 10.4435C13.9012 9.78831 18.75 13.1653 18.75 13.1653C20.7661 12.6008 22.9335 12.3085 25.0806 12.3085C27.2278 12.3085 29.3952 12.6008 31.4113 13.1653C31.4113 13.1653 36.2601 9.77822 38.3669 10.4435C39.748 13.9415 38.8911 16.6331 38.629 17.2883C40.2419 19.0726 41.2298 20.4637 41.2298 23.2258C41.2298 32.9536 35.2923 33.7298 29.6573 34.3649C30.5847 35.1613 31.371 36.6734 31.371 39.0423C31.371 42.4395 31.3407 46.6431 31.3407 47.4698C31.3407 48.125 31.8044 48.9214 33.0847 48.6895C43.1653 45.3427 50 35.7762 50 24.5968C50 10.6149 38.6593 0 24.6774 0ZM9.79839 34.7681C9.66734 34.8689 9.69758 35.1008 9.86895 35.2923C10.0302 35.4536 10.2621 35.5242 10.3931 35.3931C10.5242 35.2923 10.494 35.0605 10.3226 34.8689C10.1613 34.7077 9.92943 34.6371 9.79839 34.7681ZM8.70968 33.9516C8.63911 34.0827 8.73992 34.2439 8.94153 34.3448C9.10282 34.4456 9.30444 34.4153 9.375 34.2742C9.44556 34.1431 9.34476 33.9819 9.14314 33.881C8.94153 33.8206 8.78024 33.8508 8.70968 33.9516ZM11.9758 37.5403C11.8145 37.6714 11.875 37.9738 12.1069 38.1653C12.3387 38.3972 12.631 38.4274 12.7621 38.2661C12.8931 38.1351 12.8327 37.8327 12.631 37.6411C12.4093 37.4093 12.1069 37.379 11.9758 37.5403ZM10.8266 36.0585C10.6653 36.1593 10.6653 36.4214 10.8266 36.6532C10.9879 36.8851 11.2601 36.9859 11.3911 36.8851C11.5524 36.754 11.5524 36.4919 11.3911 36.2601C11.25 36.0282 10.9879 35.9274 10.8266 36.0585Z" fill="#CCCCCC"/>
</svg>
