<svg width="41" height="50" viewBox="0 0 41 50" fill="none" xmlns="http://www.w3.org/2000/svg">
<path d="M40.7083 9.405C40.7055 9.37607 40.7006 9.34775 40.6956 9.3194C40.6938 9.30953 40.6931 9.2994 40.6911 9.28953C40.6843 9.25535 40.6756 9.2219 40.6658 9.1888L40.6628 9.17702C40.6525 9.14345 40.6403 9.1106 40.6273 9.07833L40.6236 9.06763C40.6108 9.03715 40.5963 9.00762 40.5813 8.97857C40.5786 8.97322 40.5763 8.9675 40.5735 8.96215C40.5593 8.93608 40.5438 8.91108 40.528 8.8862C40.5228 8.87823 40.5186 8.86975 40.5133 8.8619C40.4983 8.83953 40.4816 8.81833 40.4653 8.79715C40.4578 8.78763 40.4513 8.77763 40.4436 8.76822C40.4243 8.74475 40.4036 8.72262 40.3826 8.70072C40.3766 8.69465 40.3716 8.6881 40.3658 8.68215L32.0323 0.34881C32.0268 0.343215 32.0205 0.338332 32.0148 0.332857C31.9926 0.311547 31.9701 0.290475 31.9463 0.270953C31.9376 0.26369 31.9278 0.25738 31.9188 0.250475C31.897 0.233571 31.8753 0.216667 31.8526 0.201429C31.8451 0.196428 31.8373 0.192381 31.8298 0.187619C31.8043 0.171428 31.7788 0.155476 31.7523 0.141309C31.7473 0.138691 31.7421 0.136547 31.7371 0.133928C31.7076 0.11869 31.6778 0.104167 31.6468 0.0913095L31.6366 0.0875C31.6043 0.0744048 31.5713 0.062262 31.5376 0.0520237L31.5253 0.0489285C31.4923 0.0392857 31.4591 0.0304763 31.4251 0.0236905C31.4151 0.0216667 31.4048 0.0208333 31.3948 0.0190476C31.3666 0.0141667 31.3383 0.00916667 31.3095 0.00630952C31.2701 0.00202381 31.2303 0 31.1905 0H1.19047C0.5331 0 0 0.532975 0 1.19047V48.8095C0 49.467 0.5331 50 1.19047 50H39.5238C40.1813 50 40.7143 49.467 40.7143 48.8095V9.5238C40.7143 9.48392 40.7123 9.44427 40.7083 9.405ZM32.3811 4.06453L36.6498 8.33332H32.3811V4.06453ZM2.38095 47.619V2.38095H30V9.5238C30 10.1813 30.5331 10.7143 31.1905 10.7143H38.3333V47.619H2.38095Z" fill="#CCCCCC"/>
<path d="M10.7144 18.3334C10.7144 18.9909 11.2475 19.5238 11.9049 19.5238H19.5239C20.1813 19.5238 20.7143 18.9909 20.7143 18.3334C20.7143 17.6759 20.1813 17.1429 19.5239 17.1429H11.9049C11.2475 17.1429 10.7144 17.6759 10.7144 18.3334Z" fill="#CCCCCC"/>
<path d="M19.2858 12.381C19.2858 10.4117 17.6836 8.80952 15.7144 8.80952C13.7451 8.80952 12.1429 10.4117 12.1429 12.381C12.1429 14.3503 13.7451 15.9524 15.7144 15.9524C17.6836 15.9524 19.2858 14.3503 19.2858 12.381ZM14.5239 12.381C14.5239 11.7245 15.0579 11.1905 15.7144 11.1905C16.3708 11.1905 16.9048 11.7245 16.9048 12.381C16.9048 13.0374 16.3708 13.5714 15.7144 13.5714C15.0579 13.5714 14.5239 13.0374 14.5239 12.381Z" fill="#CCCCCC"/>
<path d="M7.14293 24.2857H24.2858C24.9431 24.2857 25.4763 23.7528 25.4763 23.0953V19.2986C25.4763 18.6411 24.9431 18.1081 24.2858 18.1081C23.6283 18.1081 23.0953 18.6411 23.0953 19.2986V21.9048H8.3334V7.14285H23.0953V15.2381C23.0953 15.8956 23.6283 16.4286 24.2858 16.4286C24.9431 16.4286 25.4763 15.8956 25.4763 15.2381V5.95238C25.4763 5.29488 24.9431 4.7619 24.2858 4.7619H7.14293C6.48555 4.7619 5.95245 5.29488 5.95245 5.95238V23.0953C5.95245 23.7528 6.48555 24.2857 7.14293 24.2857Z" fill="#CCCCCC"/>
<path d="M33.5716 27.8573H7.14293C6.48555 27.8573 5.95245 28.3903 5.95245 29.0478C5.95245 29.7053 6.48555 30.238 7.14293 30.238H33.5716C34.2288 30.238 34.7621 29.7053 34.7621 29.0478C34.7621 28.3903 34.2288 27.8573 33.5716 27.8573Z" fill="#CCCCCC"/>
<path d="M33.5716 33.8095H7.14293C6.48555 33.8095 5.95245 34.3425 5.95245 35C5.95245 35.6575 6.48555 36.1905 7.14293 36.1905H33.5716C34.2288 36.1905 34.7621 35.6575 34.7621 35C34.7621 34.3425 34.2288 33.8095 33.5716 33.8095Z" fill="#CCCCCC"/>
<path d="M33.5716 39.762H7.14293C6.48555 39.762 5.95245 40.295 5.95245 40.9525C5.95245 41.61 6.48555 42.1427 7.14293 42.1427H33.5716C34.2288 42.1427 34.7621 41.61 34.7621 40.9525C34.7621 40.295 34.2288 39.762 33.5716 39.762Z" fill="#CCCCCC"/>
</svg>
